<svg width="56" height="60" viewBox="0 0 56 60" fill="none" xmlns="http://www.w3.org/2000/svg">
<circle cx="28.214" cy="18.8683" r="18.8683" fill="#1F2626"/>
<g clip-path="url(#clip0_1_1832)">
<path fill-rule="evenodd" clip-rule="evenodd" d="M28.214 0C17.7892 0 9.3457 8.44354 9.3457 18.8682C9.3457 27.2175 14.7467 34.2695 22.2469 36.7695C23.1903 36.9346 23.5441 36.3686 23.5441 35.8733C23.5441 35.4251 23.5205 33.9393 23.5205 32.3591C18.7798 33.2317 17.5534 31.2034 17.176 30.142C16.9638 29.5996 16.0439 27.925 15.242 27.4769C14.5816 27.1231 13.6382 26.2505 15.2184 26.2269C16.7043 26.2033 17.7657 27.5948 18.1194 28.1609C19.8176 31.0147 22.5299 30.2128 23.6148 29.7175C23.7799 28.4911 24.2752 27.6656 24.8177 27.1939C20.6195 26.7222 16.2326 25.0948 16.2326 17.8777C16.2326 15.8257 16.9638 14.1276 18.1666 12.8068C17.9779 12.3351 17.3175 10.4011 18.3553 7.80674C18.3553 7.80674 19.9355 7.31145 23.5441 9.74073C25.0535 9.3162 26.6573 9.10393 28.2611 9.10393C29.8649 9.10393 31.4687 9.3162 32.9782 9.74073C36.5867 7.28786 38.167 7.80674 38.167 7.80674C39.2047 10.4011 38.5443 12.3351 38.3556 12.8068C39.5585 14.1276 40.2896 15.8022 40.2896 17.8777C40.2896 25.1184 35.8792 26.7222 31.681 27.1939C32.365 27.7835 32.9546 28.9156 32.9546 30.6845C32.9546 33.2081 32.931 35.2365 32.931 35.8733C32.931 36.3686 33.2848 36.9582 34.2282 36.7695C37.9738 35.5049 41.2286 33.0976 43.5344 29.8863C45.8403 26.6751 47.0811 22.8216 47.0822 18.8682C47.0822 8.44354 38.6387 0 28.214 0Z" fill="url(#paint0_linear_1_1832)"/>
</g>
<path d="M7.63127 53.0178H8.48327V56.2218C8.09127 56.5658 7.62727 56.8298 7.09127 57.0138C6.55527 57.1978 5.99127 57.2898 5.39927 57.2898C4.55927 57.2898 3.80327 57.1058 3.13127 56.7378C2.45927 56.3698 1.93127 55.8618 1.54727 55.2138C1.16327 54.5578 0.971265 53.8258 0.971265 53.0178C0.971265 52.2098 1.16327 51.4818 1.54727 50.8338C1.93127 50.1778 2.45927 49.6658 3.13127 49.2978C3.80327 48.9298 4.56327 48.7458 5.41127 48.7458C6.05127 48.7458 6.63927 48.8498 7.17527 49.0578C7.71127 49.2578 8.16327 49.5578 8.53127 49.9578L7.97927 50.5218C7.31527 49.8658 6.47127 49.5378 5.44727 49.5378C4.76727 49.5378 4.15127 49.6898 3.59927 49.9938C3.05527 50.2898 2.62727 50.7058 2.31527 51.2418C2.00327 51.7698 1.84727 52.3618 1.84727 53.0178C1.84727 53.6738 2.00327 54.2658 2.31527 54.7938C2.62727 55.3218 3.05527 55.7378 3.59927 56.0418C4.14327 56.3458 4.75527 56.4978 5.43527 56.4978C6.29927 56.4978 7.03127 56.2818 7.63127 55.8498V53.0178ZM12.4365 48.8178H13.3245V57.2178H12.4365V48.8178ZM19.1296 49.5858H16.1776V48.8178H22.9696V49.5858H20.0176V57.2178H19.1296V49.5858ZM32.8482 48.8178V57.2178H31.9722V53.3418H26.7162V57.2178H25.8282V48.8178H26.7162V52.5618H31.9722V48.8178H32.8482ZM40.414 57.2898C39.326 57.2898 38.478 56.9778 37.87 56.3538C37.262 55.7298 36.958 54.8218 36.958 53.6298V48.8178H37.846V53.5938C37.846 54.5698 38.066 55.2978 38.506 55.7778C38.946 56.2578 39.582 56.4978 40.414 56.4978C41.254 56.4978 41.894 56.2578 42.334 55.7778C42.774 55.2978 42.994 54.5698 42.994 53.5938V48.8178H43.858V53.6298C43.858 54.8218 43.554 55.7298 42.946 56.3538C42.346 56.9778 41.502 57.2898 40.414 57.2898ZM53.2659 52.8858C53.8179 53.0058 54.2419 53.2458 54.5379 53.6058C54.8419 53.9578 54.9939 54.4138 54.9939 54.9738C54.9939 55.6938 54.7259 56.2498 54.1899 56.6418C53.6619 57.0258 52.8779 57.2178 51.8379 57.2178H47.9739V48.8178H51.5979C52.5339 48.8178 53.2579 49.0058 53.7699 49.3818C54.2899 49.7578 54.5499 50.2898 54.5499 50.9778C54.5499 51.4418 54.4339 51.8378 54.2019 52.1658C53.9779 52.4858 53.6659 52.7258 53.2659 52.8858ZM48.8619 49.5498V52.5978H51.5379C52.2179 52.5978 52.7419 52.4698 53.1099 52.2138C53.4779 51.9498 53.6619 51.5698 53.6619 51.0738C53.6619 50.5778 53.4779 50.2018 53.1099 49.9458C52.7419 49.6818 52.2179 49.5498 51.5379 49.5498H48.8619ZM51.8259 56.4858C52.5779 56.4858 53.1459 56.3578 53.5299 56.1018C53.9139 55.8458 54.1059 55.4458 54.1059 54.9018C54.1059 53.8538 53.3459 53.3298 51.8259 53.3298H48.8619V56.4858H51.8259Z" fill="#BDEBEA"/>
<defs>
<linearGradient id="paint0_linear_1_1832" x1="9.3457" y1="18.4028" x2="47.0822" y2="18.4028" gradientUnits="userSpaceOnUse">
<stop stop-color="#00F5A0"/>
<stop offset="1" stop-color="#00D9F5"/>
</linearGradient>
<clipPath id="clip0_1_1832">
<rect width="37.7365" height="37.7365" fill="white" transform="translate(9.3457)"/>
</clipPath>
</defs>
</svg>
