<svg width="120" height="164" viewBox="0 0 120 164" fill="none" xmlns="http://www.w3.org/2000/svg">
<path d="M2.25488 0H117.745V120H2.25488V0Z" fill="#F7DF1E"/>
<path d="M32.6201 100.28L41.4582 94.7229C43.1632 97.8641 44.7143 100.522 48.4347 100.522C52.001 100.522 54.2494 99.0723 54.2494 93.4342V55.0913H65.1025V93.5936C65.1025 105.274 58.5134 110.59 48.9 110.59C40.2179 110.59 35.1781 105.918 32.6199 100.28" fill="black"/>
<path d="M71 99.0724L79.837 93.756C82.1633 97.7035 85.1868 100.603 90.5357 100.603C95.0326 100.603 97.9003 98.2669 97.9003 95.0448C97.9003 91.1783 94.9545 89.8088 89.9929 87.5541L87.2803 86.345C79.4499 82.8819 74.2555 78.5322 74.2555 69.3492C74.2555 60.8913 80.4574 54.4469 90.1483 54.4469C97.048 54.4469 102.01 56.9442 105.575 63.469L97.125 69.1073C95.2644 65.6438 93.2493 64.2747 90.1485 64.2747C86.9699 64.2747 84.9542 66.369 84.9542 69.1073C84.9542 72.4905 86.9699 73.8602 91.6209 75.9547L94.334 77.1629C103.56 81.2713 108.754 85.4595 108.754 94.8836C108.754 105.034 101.079 110.591 90.7685 110.591C80.6904 110.591 74.1782 105.597 71.0002 99.0724" fill="black"/>
<path d="M10.055 158.096C9.41501 158.096 8.82301 157.957 8.27901 157.68C7.73501 157.403 7.29234 157.008 6.95101 156.496L7.65501 155.696C8.27368 156.613 9.07901 157.072 10.071 157.072C11.4577 157.072 12.151 156.251 12.151 154.608V147.824H8.05501V146.8H13.319V154.56C13.319 155.733 13.0417 156.619 12.487 157.216C11.943 157.803 11.1323 158.096 10.055 158.096ZM25.8263 155.008H19.5863L18.2423 158H17.0103L22.1303 146.8H23.2983L28.4183 158H27.1703L25.8263 155.008ZM25.3943 154.048L22.7063 148.032L20.0183 154.048H25.3943ZM41.171 146.8L36.211 158H35.043L30.083 146.8H31.363L35.651 156.528L39.971 146.8H41.171ZM51.6429 155.008H45.4029L44.0589 158H42.8269L47.9469 146.8H49.1149L54.2349 158H52.9869L51.6429 155.008ZM51.2109 154.048L48.5229 148.032L45.8349 154.048H51.2109ZM62.9614 158.096C61.8521 158.096 60.8494 157.851 59.9534 157.36C59.0681 156.869 58.3694 156.192 57.8574 155.328C57.3561 154.453 57.1054 153.477 57.1054 152.4C57.1054 151.323 57.3561 150.352 57.8574 149.488C58.3694 148.613 59.0734 147.931 59.9694 147.44C60.8654 146.949 61.8681 146.704 62.9774 146.704C63.8094 146.704 64.5774 146.843 65.2814 147.12C65.9854 147.397 66.5828 147.803 67.0734 148.336L66.3214 149.088C65.4468 148.203 64.3428 147.76 63.0094 147.76C62.1241 147.76 61.3188 147.963 60.5934 148.368C59.8681 148.773 59.2974 149.328 58.8814 150.032C58.4761 150.736 58.2734 151.525 58.2734 152.4C58.2734 153.275 58.4761 154.064 58.8814 154.768C59.2974 155.472 59.8681 156.027 60.5934 156.432C61.3188 156.837 62.1241 157.04 63.0094 157.04C64.3534 157.04 65.4574 156.592 66.3214 155.696L67.0734 156.448C66.5828 156.981 65.9801 157.392 65.2654 157.68C64.5614 157.957 63.7934 158.096 62.9614 158.096ZM79.4115 158L76.8515 154.4C76.5635 154.432 76.2648 154.448 75.9555 154.448H72.9475V158H71.7635V146.8H75.9555C77.3848 146.8 78.5048 147.141 79.3155 147.824C80.1262 148.507 80.5315 149.445 80.5315 150.64C80.5315 151.515 80.3075 152.256 79.8595 152.864C79.4222 153.461 78.7928 153.893 77.9715 154.16L80.7075 158H79.4115ZM75.9235 153.44C77.0328 153.44 77.8808 153.195 78.4675 152.704C79.0542 152.213 79.3475 151.525 79.3475 150.64C79.3475 149.733 79.0542 149.04 78.4675 148.56C77.8808 148.069 77.0328 147.824 75.9235 147.824H72.9475V153.44H75.9235ZM85.4921 146.8H86.6761V158H85.4921V146.8ZM96.6783 146.8C98.1076 146.8 99.2276 147.141 100.038 147.824C100.849 148.507 101.254 149.445 101.254 150.64C101.254 151.835 100.849 152.773 100.038 153.456C99.2276 154.128 98.1076 154.464 96.6783 154.464H93.6703V158H92.4863V146.8H96.6783ZM96.6463 153.424C97.7556 153.424 98.6036 153.184 99.1903 152.704C99.777 152.213 100.07 151.525 100.07 150.64C100.07 149.733 99.777 149.04 99.1903 148.56C98.6036 148.069 97.7556 147.824 96.6463 147.824H93.6703V153.424H96.6463ZM107.781 147.824H103.845V146.8H112.901V147.824H108.965V158H107.781V147.824Z" fill="#BDEBEA"/>
</svg>
