<svg width="71" height="60" viewBox="0 0 71 60" fill="none" xmlns="http://www.w3.org/2000/svg">
<ellipse cx="35.3519" cy="18.868" rx="18.8683" ry="18.8683" fill="url(#paint0_linear_1_1825)"/>
<path d="M26.0633 28.705H30.0113V14.0974H26.0633V28.705ZM28.0373 7.64893C26.7213 7.64893 25.6685 8.70173 25.6685 10.0177C25.6685 11.3337 26.7213 12.3866 28.0373 12.3866C29.3533 12.3866 30.4061 11.3337 30.4061 10.0177C30.4061 8.70173 29.3533 7.64893 28.0373 7.64893ZM36.7229 16.3346V14.0974H32.7749V28.705H36.7229V21.2038C36.7229 16.9926 42.1185 16.7294 42.1185 21.2038V28.705H46.0666V19.7562C46.0666 12.6498 38.5653 12.913 36.7229 16.3346Z" fill="#1F2626"/>
<path d="M1.67566 48.8178H2.56366V56.4498H7.26766V57.2178H1.67566V48.8178ZM10.1821 48.8178H11.0701V57.2178H10.1821V48.8178ZM22.2632 48.8178V57.2178H21.5312L16.1312 50.4018V57.2178H15.2432V48.8178H15.9752L21.3872 55.6338V48.8178H22.2632ZM29.0489 53.2698L27.3329 55.0098V57.2178H26.4449V48.8178H27.3329V53.8938L32.2649 48.8178H33.2849L29.6489 52.6218L33.5369 57.2178H32.4809L29.0489 53.2698ZM42.3561 56.4498V57.2178H36.4161V48.8178H42.1761V49.5858H37.3041V52.5738H41.6481V53.3298H37.3041V56.4498H42.3561ZM45.8835 48.8178H49.3035C50.1915 48.8178 50.9755 48.9978 51.6555 49.3578C52.3355 49.7098 52.8635 50.2058 53.2395 50.8458C53.6155 51.4778 53.8035 52.2018 53.8035 53.0178C53.8035 53.8338 53.6155 54.5618 53.2395 55.2018C52.8635 55.8338 52.3355 56.3298 51.6555 56.6898C50.9755 57.0418 50.1915 57.2178 49.3035 57.2178H45.8835V48.8178ZM49.2555 56.4498C49.9915 56.4498 50.6355 56.3058 51.1875 56.0178C51.7395 55.7218 52.1675 55.3178 52.4715 54.8058C52.7755 54.2858 52.9275 53.6898 52.9275 53.0178C52.9275 52.3458 52.7755 51.7538 52.4715 51.2418C52.1675 50.7218 51.7395 50.3178 51.1875 50.0298C50.6355 49.7338 49.9915 49.5858 49.2555 49.5858H46.7715V56.4498H49.2555ZM57.2375 48.8178H58.1255V57.2178H57.2375V48.8178ZM69.3186 48.8178V57.2178H68.5866L63.1866 50.4018V57.2178H62.2986V48.8178H63.0306L68.4426 55.6338V48.8178H69.3186Z" fill="#BDEBEA"/>
<defs>
<linearGradient id="paint0_linear_1_1825" x1="16.4836" y1="18.868" x2="54.2201" y2="18.868" gradientUnits="userSpaceOnUse">
<stop stop-color="#00F5A0"/>
<stop offset="1" stop-color="#00D9F5"/>
</linearGradient>
</defs>
</svg>
