<svg width="152" height="169" viewBox="0 0 152 169" fill="none" xmlns="http://www.w3.org/2000/svg">
<path d="M35.2888 148.096C34.4568 148.096 33.6568 147.963 32.8888 147.696C32.1314 147.419 31.5448 147.067 31.1288 146.64L31.5928 145.728C31.9874 146.112 32.5154 146.437 33.1768 146.704C33.8488 146.96 34.5528 147.088 35.2888 147.088C35.9928 147.088 36.5634 147.003 37.0008 146.832C37.4488 146.651 37.7741 146.411 37.9768 146.112C38.1901 145.813 38.2968 145.483 38.2968 145.12C38.2968 144.683 38.1688 144.331 37.9128 144.064C37.6674 143.797 37.3421 143.589 36.9368 143.44C36.5314 143.28 36.0834 143.141 35.5928 143.024C35.1021 142.907 34.6114 142.784 34.1208 142.656C33.6301 142.517 33.1768 142.336 32.7608 142.112C32.3554 141.888 32.0248 141.595 31.7688 141.232C31.5234 140.859 31.4008 140.373 31.4008 139.776C31.4008 139.221 31.5448 138.715 31.8328 138.256C32.1314 137.787 32.5848 137.413 33.1928 137.136C33.8008 136.848 34.5794 136.704 35.5288 136.704C36.1581 136.704 36.7821 136.795 37.4008 136.976C38.0194 137.147 38.5528 137.387 39.0008 137.696L38.6008 138.64C38.1208 138.32 37.6088 138.085 37.0648 137.936C36.5314 137.787 36.0141 137.712 35.5128 137.712C34.8408 137.712 34.2861 137.803 33.8488 137.984C33.4114 138.165 33.0861 138.411 32.8728 138.72C32.6701 139.019 32.5688 139.36 32.5688 139.744C32.5688 140.181 32.6914 140.533 32.9368 140.8C33.1928 141.067 33.5234 141.275 33.9288 141.424C34.3448 141.573 34.7981 141.707 35.2888 141.824C35.7794 141.941 36.2648 142.069 36.7448 142.208C37.2354 142.347 37.6834 142.528 38.0888 142.752C38.5048 142.965 38.8354 143.253 39.0808 143.616C39.3368 143.979 39.4648 144.453 39.4648 145.04C39.4648 145.584 39.3154 146.091 39.0168 146.56C38.7181 147.019 38.2594 147.392 37.6408 147.68C37.0328 147.957 36.2488 148.096 35.2888 148.096ZM46.2304 148V137.824H42.2944V136.8H51.3504V137.824H47.4144V148H46.2304ZM58.0018 148V143.84L58.2738 144.576L53.5218 136.8H54.7858L58.9618 143.632H58.2898L62.4658 136.8H63.6498L58.8978 144.576L59.1698 143.84V148H58.0018ZM67.4178 148V136.8H68.6018V146.976H74.8738V148H67.4178ZM80.0617 141.808H85.9817V142.816H80.0617V141.808ZM80.1897 146.976H86.9257V148H79.0057V136.8H86.6857V137.824H80.1897V146.976ZM91.8749 148V136.8H96.4349C97.6296 136.8 98.6749 137.04 99.5709 137.52C100.478 137.989 101.182 138.645 101.683 139.488C102.184 140.331 102.435 141.301 102.435 142.4C102.435 143.499 102.184 144.469 101.683 145.312C101.182 146.155 100.478 146.816 99.5709 147.296C98.6749 147.765 97.6296 148 96.4349 148H91.8749ZM93.0589 146.976H96.3709C97.3629 146.976 98.2216 146.784 98.9469 146.4C99.6829 146.005 100.254 145.467 100.659 144.784C101.064 144.091 101.267 143.296 101.267 142.4C101.267 141.493 101.064 140.699 100.659 140.016C100.254 139.333 99.6829 138.8 98.9469 138.416C98.2216 138.021 97.3629 137.824 96.3709 137.824H93.0589V146.976ZM6.70628 168.096C5.86361 168.096 5.08495 167.957 4.37028 167.68C3.65561 167.392 3.03695 166.992 2.51428 166.48C1.99161 165.968 1.58095 165.365 1.28228 164.672C0.99428 163.979 0.85028 163.221 0.85028 162.4C0.85028 161.579 0.99428 160.821 1.28228 160.128C1.58095 159.435 1.99161 158.832 2.51428 158.32C3.04761 157.808 3.67161 157.413 4.38628 157.136C5.10095 156.848 5.87961 156.704 6.72228 156.704C7.53295 156.704 8.29561 156.843 9.01028 157.12C9.72495 157.387 10.3276 157.792 10.8183 158.336L10.0663 159.088C9.60761 158.619 9.10095 158.283 8.54628 158.08C7.99161 157.867 7.39428 157.76 6.75428 157.76C6.08228 157.76 5.45828 157.877 4.88228 158.112C4.30628 158.336 3.80495 158.661 3.37828 159.088C2.95161 159.504 2.61561 159.995 2.37028 160.56C2.13561 161.115 2.01828 161.728 2.01828 162.4C2.01828 163.072 2.13561 163.691 2.37028 164.256C2.61561 164.811 2.95161 165.301 3.37828 165.728C3.80495 166.144 4.30628 166.469 4.88228 166.704C5.45828 166.928 6.08228 167.04 6.75428 167.04C7.39428 167.04 7.99161 166.933 8.54628 166.72C9.10095 166.507 9.60761 166.165 10.0663 165.696L10.8183 166.448C10.3276 166.992 9.72495 167.403 9.01028 167.68C8.29561 167.957 7.52761 168.096 6.70628 168.096ZM20.17 168.096C19.3273 168.096 18.5433 167.957 17.818 167.68C17.1033 167.392 16.4793 166.992 15.946 166.48C15.4233 165.957 15.0126 165.355 14.714 164.672C14.426 163.979 14.282 163.221 14.282 162.4C14.282 161.579 14.426 160.827 14.714 160.144C15.0126 159.451 15.4233 158.848 15.946 158.336C16.4793 157.813 17.1033 157.413 17.818 157.136C18.5326 156.848 19.3166 156.704 20.17 156.704C21.0126 156.704 21.7913 156.848 22.506 157.136C23.2206 157.413 23.8393 157.808 24.362 158.32C24.8953 158.832 25.306 159.435 25.594 160.128C25.8926 160.821 26.042 161.579 26.042 162.4C26.042 163.221 25.8926 163.979 25.594 164.672C25.306 165.365 24.8953 165.968 24.362 166.48C23.8393 166.992 23.2206 167.392 22.506 167.68C21.7913 167.957 21.0126 168.096 20.17 168.096ZM20.17 167.04C20.842 167.04 21.4606 166.928 22.026 166.704C22.602 166.469 23.098 166.144 23.514 165.728C23.9406 165.301 24.2713 164.811 24.506 164.256C24.7406 163.691 24.858 163.072 24.858 162.4C24.858 161.728 24.7406 161.115 24.506 160.56C24.2713 159.995 23.9406 159.504 23.514 159.088C23.098 158.661 22.602 158.336 22.026 158.112C21.4606 157.877 20.842 157.76 20.17 157.76C19.498 157.76 18.874 157.877 18.298 158.112C17.722 158.336 17.2206 158.661 16.794 159.088C16.378 159.504 16.0473 159.995 15.802 160.56C15.5673 161.115 15.45 161.728 15.45 162.4C15.45 163.061 15.5673 163.675 15.802 164.24C16.0473 164.805 16.378 165.301 16.794 165.728C17.2206 166.144 17.722 166.469 18.298 166.704C18.874 166.928 19.498 167.04 20.17 167.04ZM30.8619 168V156.8H31.8379L36.9579 165.536H36.4459L41.5179 156.8H42.4939V168H41.3579V158.576H41.6299L36.9579 166.576H36.3979L31.6939 158.576H31.9979V168H30.8619ZM48.3093 168V156.8H52.5013C53.4506 156.8 54.2666 156.955 54.9493 157.264C55.6319 157.563 56.1546 158 56.5173 158.576C56.8906 159.141 57.0773 159.829 57.0773 160.64C57.0773 161.429 56.8906 162.112 56.5173 162.688C56.1546 163.253 55.6319 163.691 54.9493 164C54.2666 164.309 53.4506 164.464 52.5013 164.464H48.9653L49.4933 163.904V168H48.3093ZM49.4933 164L48.9653 163.424H52.4693C53.5893 163.424 54.4373 163.184 55.0133 162.704C55.5999 162.213 55.8933 161.525 55.8933 160.64C55.8933 159.744 55.5999 159.051 55.0133 158.56C54.4373 158.069 53.5893 157.824 52.4693 157.824H48.9653L49.4933 157.264V164ZM66.8557 168.096C66.013 168.096 65.229 167.957 64.5037 167.68C63.789 167.392 63.165 166.992 62.6317 166.48C62.109 165.957 61.6984 165.355 61.3997 164.672C61.1117 163.979 60.9677 163.221 60.9677 162.4C60.9677 161.579 61.1117 160.827 61.3997 160.144C61.6984 159.451 62.109 158.848 62.6317 158.336C63.165 157.813 63.789 157.413 64.5037 157.136C65.2184 156.848 66.0024 156.704 66.8557 156.704C67.6984 156.704 68.477 156.848 69.1917 157.136C69.9064 157.413 70.525 157.808 71.0477 158.32C71.581 158.832 71.9917 159.435 72.2797 160.128C72.5784 160.821 72.7277 161.579 72.7277 162.4C72.7277 163.221 72.5784 163.979 72.2797 164.672C71.9917 165.365 71.581 165.968 71.0477 166.48C70.525 166.992 69.9064 167.392 69.1917 167.68C68.477 167.957 67.6984 168.096 66.8557 168.096ZM66.8557 167.04C67.5277 167.04 68.1464 166.928 68.7117 166.704C69.2877 166.469 69.7837 166.144 70.1997 165.728C70.6264 165.301 70.957 164.811 71.1917 164.256C71.4264 163.691 71.5437 163.072 71.5437 162.4C71.5437 161.728 71.4264 161.115 71.1917 160.56C70.957 159.995 70.6264 159.504 70.1997 159.088C69.7837 158.661 69.2877 158.336 68.7117 158.112C68.1464 157.877 67.5277 157.76 66.8557 157.76C66.1837 157.76 65.5597 157.877 64.9837 158.112C64.4077 158.336 63.9064 158.661 63.4797 159.088C63.0637 159.504 62.733 159.995 62.4877 160.56C62.253 161.115 62.1357 161.728 62.1357 162.4C62.1357 163.061 62.253 163.675 62.4877 164.24C62.733 164.805 63.0637 165.301 63.4797 165.728C63.9064 166.144 64.4077 166.469 64.9837 166.704C65.5597 166.928 66.1837 167.04 66.8557 167.04ZM77.5477 168V156.8H78.5237L86.2517 166.528H85.7397V156.8H86.9077V168H85.9317L78.2197 158.272H78.7317V168H77.5477ZM93.7854 161.808H99.7054V162.816H93.7854V161.808ZM93.9134 166.976H100.649V168H92.7294V156.8H100.409V157.824H93.9134V166.976ZM105.599 168V156.8H106.575L114.303 166.528H113.791V156.8H114.959V168H113.983L106.271 158.272H106.783V168H105.599ZM122.956 168V157.824H119.02V156.8H128.076V157.824H124.14V168H122.956ZM135.05 168.096C134.218 168.096 133.418 167.963 132.65 167.696C131.893 167.419 131.306 167.067 130.89 166.64L131.354 165.728C131.749 166.112 132.277 166.437 132.938 166.704C133.61 166.96 134.314 167.088 135.05 167.088C135.754 167.088 136.325 167.003 136.762 166.832C137.21 166.651 137.535 166.411 137.738 166.112C137.951 165.813 138.058 165.483 138.058 165.12C138.058 164.683 137.93 164.331 137.674 164.064C137.429 163.797 137.103 163.589 136.698 163.44C136.293 163.28 135.845 163.141 135.354 163.024C134.863 162.907 134.373 162.784 133.882 162.656C133.391 162.517 132.938 162.336 132.522 162.112C132.117 161.888 131.786 161.595 131.53 161.232C131.285 160.859 131.162 160.373 131.162 159.776C131.162 159.221 131.306 158.715 131.594 158.256C131.893 157.787 132.346 157.413 132.954 157.136C133.562 156.848 134.341 156.704 135.29 156.704C135.919 156.704 136.543 156.795 137.162 156.976C137.781 157.147 138.314 157.387 138.762 157.696L138.362 158.64C137.882 158.32 137.37 158.085 136.826 157.936C136.293 157.787 135.775 157.712 135.274 157.712C134.602 157.712 134.047 157.803 133.61 157.984C133.173 158.165 132.847 158.411 132.634 158.72C132.431 159.019 132.33 159.36 132.33 159.744C132.33 160.181 132.453 160.533 132.698 160.8C132.954 161.067 133.285 161.275 133.69 161.424C134.106 161.573 134.559 161.707 135.05 161.824C135.541 161.941 136.026 162.069 136.506 162.208C136.997 162.347 137.445 162.528 137.85 162.752C138.266 162.965 138.597 163.253 138.842 163.616C139.098 163.979 139.226 164.453 139.226 165.04C139.226 165.584 139.077 166.091 138.778 166.56C138.479 167.019 138.021 167.392 137.402 167.68C136.794 167.957 136.01 168.096 135.05 168.096Z" fill="#BDEBEA"/>
<g clip-path="url(#clip0_1_1891)">
<path d="M85.7673 118.274C85.9473 117.867 86.4015 117.584 86.7315 117.241C91.7666 111.962 96.8446 106.729 101.811 101.386C103.365 99.9505 104.566 98.175 105.32 96.1983C106.074 94.2215 106.36 92.0972 106.156 89.9915C106 89.0898 105.796 88.1971 105.544 87.3175C104.189 88.6031 102.93 89.7729 101.661 90.9514C99.6899 92.7854 97.7273 94.6281 95.739 96.4407C94.5665 97.6361 93.059 98.4478 91.4156 98.7683C89.7721 99.0889 88.0701 98.9034 86.5344 98.2362C84.9797 97.6651 83.627 96.6499 82.6443 95.3167C81.6616 93.9836 81.092 92.3911 81.0064 90.7371C80.9604 90.5243 80.8988 90.3152 80.8222 90.1115C79.3095 91.397 77.8611 92.5797 76.4256 93.7967L46.5877 119.079C46.382 119.255 46.1591 119.474 45.9663 119.645H85.7459L85.6859 119.607C85.4716 119.457 85.583 118.668 85.7673 118.274Z" fill="#FFCEBF"/>
<path d="M44.1436 118.273C44.4974 117.812 44.9245 117.413 45.4077 117.09L86.7 82.0589C89.5168 79.6677 92.3207 77.2637 95.1118 74.8469C95.4567 74.6064 95.727 74.2738 95.8918 73.887C96.5594 70.9777 96.654 67.9663 96.1703 65.0209C95.7418 65.3209 95.5104 65.4494 95.3132 65.6594C91.9322 68.6847 88.5683 71.7358 85.1702 74.744C84.0445 75.877 82.5885 76.6239 81.0116 76.8772C79.4346 77.1305 77.818 76.8773 76.3941 76.1539C74.9414 75.4681 73.7256 74.3655 72.9014 72.9866C72.0773 71.6077 71.682 70.0147 71.766 68.4105V67.0221C71.1447 67.4763 70.6905 67.7806 70.2662 68.1234C53.7396 81.3561 37.2159 94.5788 20.695 107.792C19.9493 108.387 19.058 109.716 18.081 108.426C17.104 107.136 18.5909 106.605 19.3408 106.005C36.953 91.872 54.5738 77.7522 72.2031 63.6453C75.0742 61.3442 75.2628 60.38 73.3944 56.7247L72.2803 57.7703C69.2249 60.6114 66.1353 63.4139 63.1271 66.3022C61.8931 67.4924 60.3476 68.3094 58.6691 68.6587C56.9906 69.0081 55.2476 68.8756 53.6412 68.2765C52.0348 67.6774 50.6306 66.6362 49.5908 65.273C48.5509 63.9099 47.9178 62.2805 47.7646 60.5728C47.1947 61.0014 46.7019 61.3142 46.2348 61.6784L20.095 81.9389C19.6442 82.3811 19.13 82.7537 18.5695 83.0445C18.1464 83.1723 17.6921 83.1496 17.2839 82.9802V119.666H44.0922C43.9925 119.446 43.9453 119.205 43.9542 118.963C43.9631 118.722 44.028 118.486 44.1436 118.273Z" fill="#FFCEBF"/>
<path d="M116.565 1.81559C115.837 4.20245 115.13 6.5936 114.491 9.00617C113.901 10.7111 113.97 12.5748 114.684 14.2318C115.397 15.8887 116.704 17.2192 118.348 17.9622C123.376 20.6054 129.042 21.7926 134.709 21.3904V2.22269C134.646 1.80244 134.669 1.37377 134.777 0.962836C134.897 0.730389 135.049 0.515545 135.227 0.324341H116.548C116.835 0.658587 116.737 1.24566 116.565 1.81559Z" fill="#FF6196"/>
<path d="M79.051 42.9922C78.9621 45.1316 78.2137 47.1912 76.9084 48.8886C72.2418 54.9126 66.8828 60.3666 60.9417 65.1381C59.9836 66.025 58.7693 66.5856 57.4728 66.7396C56.1764 66.8936 54.8646 66.633 53.7254 65.9952C52.5916 65.5108 51.6356 64.6872 50.9887 63.6375C50.3419 62.5878 50.036 61.3636 50.113 60.133C50.2502 58.6217 50.8777 57.1966 51.8999 56.0749C58.5434 49.7402 65.7414 44.0136 73.4074 38.9641C73.9094 38.5704 74.5226 38.3445 75.1601 38.3184C75.7976 38.2922 76.4272 38.4671 76.9598 38.8184C77.6598 39.2531 78.2258 39.8732 78.5949 40.6099C78.9641 41.3466 79.1219 42.1712 79.051 42.9922Z" fill="#FF87AF"/>
<path d="M73.9126 68.9646C73.8131 68.0174 73.9347 67.06 74.2678 66.1678C74.6009 65.2755 75.1365 64.4727 75.8324 63.8224C82.3372 57.8227 89.3163 52.3584 96.7013 47.4829C96.9241 47.3415 97.1298 47.2001 97.3741 47.0544C98.0192 46.5887 98.8008 46.3507 99.5959 46.3778C100.391 46.405 101.155 46.6957 101.766 47.2044C102.358 47.7058 102.777 48.3811 102.963 49.1342C103.15 49.8874 103.094 50.6801 102.803 51.3996C101.869 54.5115 100.145 57.3283 97.7983 59.5757C93.0329 64.2704 88.1753 68.8708 83.2286 73.3741C82.4836 74.1402 81.5051 74.6368 80.4469 74.7857C79.3888 74.9347 78.3111 74.7275 77.3836 74.1969C76.409 73.6904 75.5791 72.9445 74.9719 72.0293C74.3648 71.114 74.0002 70.0595 73.9126 68.9646Z" fill="#FF87AF"/>
<path d="M104.834 71.7961C103.635 73.0817 102.4 74.3073 101.248 75.6228C100.901 76.1313 100.614 76.6776 100.391 77.2512C101.025 77.4397 101.766 77.9368 102.28 77.7611C104.899 76.8827 107.453 75.8285 110.328 74.7186C109.702 76.1585 109.231 77.4869 108.567 78.7039C105.831 83.3025 102.404 87.4533 98.4066 91.011C96.8868 92.4765 95.3084 93.8778 93.6715 95.2148C92.8046 95.9342 91.7622 96.4104 90.6509 96.5947C89.5396 96.779 88.3992 96.6648 87.3465 96.2638C86.2938 95.8628 85.3665 95.1893 84.6595 94.3123C83.9525 93.4353 83.4912 92.3862 83.3227 91.2724C83.254 90.6531 83.3087 90.0263 83.4838 89.4283C83.6589 88.8303 83.9507 88.273 84.3426 87.7885C90.174 81.4561 96.8384 75.9449 104.153 71.4062C104.242 71.3717 104.336 71.3528 104.432 71.3505L104.834 71.7961Z" fill="#FF87AF"/>
<path d="M114.672 54.7281L122.004 22.1605L127.147 23.3647L124.494 31.4251C122.017 38.9243 119.51 46.4234 117.093 53.931C116.622 55.3195 116.005 55.5766 114.672 54.7281Z" fill="#FF6196"/>
<path d="M106.386 73.8831C107.161 70.9221 107.933 68.1838 108.584 65.4156C109.219 62.731 110.426 60.2153 112.124 58.0407C113.165 56.6738 114.335 57.218 115.53 57.5137C116.636 57.7836 116.914 58.5935 116.962 59.6563C117.136 62.5951 116.241 65.4978 114.442 67.8282C112.3 70.4833 109.532 72.5641 106.386 73.8831Z" fill="#FF6196"/>
<path d="M136.944 3.83399C137.008 2.87961 136.983 1.92137 136.871 0.971474C136.783 0.706144 136.607 0.478249 136.374 0.324408C136.184 0.16973 135.961 0.0598812 135.723 0.00301735C135.585 -0.0226939 135.393 0.118717 135.208 0.320122C135.03 0.511327 134.878 0.726171 134.758 0.958619C134.65 1.36955 134.627 1.79822 134.69 2.21847V21.3819C129.023 21.7841 123.357 20.5969 118.329 17.9537C116.685 17.2107 115.378 15.8802 114.665 14.2233C113.951 12.5663 113.882 10.7026 114.472 8.99767C115.111 6.58509 115.818 4.19395 116.546 1.80709C116.718 1.23716 116.816 0.650083 116.546 0.315837C116.396 0.153123 116.189 0.0548412 115.968 0.0415845C115.685 0.0446377 115.411 0.141042 115.188 0.315837C114.867 0.507517 114.612 0.791222 114.455 1.13003C113.598 3.70115 112.844 6.29798 112.188 8.92053C111.941 9.95399 111.874 11.0225 111.991 12.0787C112.157 13.9898 112.868 15.8132 114.039 17.3324C115.21 18.8515 116.793 20.0027 118.599 20.6491C119.409 20.9877 119.884 21.3219 119.657 22.3889C119.344 23.7431 119.04 25.0972 118.732 26.4556C116.632 35.6602 114.544 44.8691 112.467 54.0823C112.408 54.4931 112.228 54.8768 111.948 55.1836C110.579 56.2717 109.429 57.6094 108.559 59.126C107.449 61.1274 106.682 63.2998 106.287 65.5538C106.212 66.2728 105.952 66.9601 105.533 67.5494C105.114 68.1387 104.55 68.6099 103.896 68.9177C102.109 69.8219 100.468 70.9917 98.4841 72.2087C98.6164 69.8228 98.5906 67.4307 98.407 65.0482C98.256 64.3153 98.288 63.5564 98.5003 62.8389C98.7126 62.1213 99.0985 61.4672 99.624 60.9344C102.238 58.3452 104.1 55.0961 105.015 51.5326C105.288 50.7066 105.363 49.8279 105.233 48.9675C105.104 48.1072 104.774 47.2894 104.27 46.5802C103.766 45.871 103.102 45.2903 102.332 44.8852C101.563 44.48 100.708 44.2616 99.8382 44.2478C98.4298 44.2321 97.047 44.625 95.8573 45.3791C91.7683 48.1713 87.7504 51.0662 83.8073 54.0609C81.4633 55.8264 79.2564 57.7805 76.9852 59.6317C76.8873 59.5265 76.8025 59.41 76.7324 59.2846C76.689 58.9691 76.604 58.6607 76.4796 58.3675C74.5812 55.4364 75.8968 53.3067 77.958 51.117C80.1053 48.866 81.2919 45.8674 81.2661 42.7565C81.3327 41.1715 80.8363 39.6141 79.8649 38.3599C79.3474 37.7233 78.7096 37.1947 77.988 36.8044C76.9629 36.2433 75.7908 36.0092 74.6289 36.1333C73.467 36.2573 72.3708 36.7337 71.4873 37.4986L70.2917 38.3556C67.5621 40.3097 64.7981 42.2123 62.1713 44.3035C58.3364 47.3652 54.5841 50.5288 50.9183 53.7909C49.2042 55.3036 47.953 57.3691 46.1746 58.7746C36.9014 66.098 27.5297 73.2886 18.1922 80.5263C17.8711 80.7179 17.5759 80.9497 17.3137 81.2162C17.2867 81.2552 17.2638 81.2969 17.2452 81.3405C17.0481 81.799 16.8809 82.5575 17.1123 82.8361C17.1691 82.8965 17.2376 82.9446 17.3137 82.9775C17.7219 83.1469 18.1762 83.1696 18.5993 83.0417C19.1598 82.751 19.674 82.3783 20.1248 81.9362L46.2646 61.6757C46.7317 61.3115 47.2245 60.9815 47.7944 60.5701C47.9476 62.2777 48.5807 63.9072 49.6206 65.2703C50.6604 66.6334 52.0646 67.6747 53.671 68.2737C55.2774 68.8728 57.0204 69.0054 58.6989 68.656C60.3774 68.3067 61.9229 67.4897 63.1569 66.2994C66.1565 63.4112 69.2547 60.6087 72.3101 57.7676L73.4242 56.722C75.2926 60.3773 75.104 61.3415 72.2329 63.6426C54.5893 77.7609 36.9585 91.8821 19.3406 106.006C18.5907 106.606 17.108 107.15 18.0808 108.427C19.0535 109.704 19.9491 108.389 20.6948 107.793C37.2242 94.5918 53.7423 81.3734 70.2489 68.1378C70.6774 67.795 71.1273 67.4907 71.7487 67.0365V68.4249C71.6647 70.0291 72.0599 71.6221 72.8841 73.001C73.7082 74.38 74.924 75.4825 76.3767 76.1683C77.8007 76.8917 79.4173 77.1449 80.9942 76.8916C82.5711 76.6383 84.0271 75.8914 85.1528 74.7584C88.551 71.7588 91.9149 68.6992 95.2959 65.6738C95.5102 65.481 95.7587 65.3353 96.153 65.0353C96.6367 67.9807 96.542 70.9922 95.8744 73.9014C95.7096 74.2882 95.4394 74.6208 95.0945 74.8613C92.3005 77.2753 89.4966 79.6793 86.6826 82.0733L45.4075 117.109C44.9243 117.432 44.4972 117.831 44.1434 118.292C44.0305 118.502 43.9672 118.735 43.9582 118.974C43.9493 119.212 43.9951 119.449 44.092 119.667C44.2856 119.812 44.5094 119.912 44.7468 119.959C44.9842 120.006 45.2291 119.998 45.4633 119.937C45.648 119.884 45.8181 119.788 45.9603 119.659C46.1746 119.487 46.3889 119.269 46.5817 119.093L76.4196 93.8105C77.8551 92.5935 79.3035 91.3936 80.8162 90.1252C80.8928 90.329 80.9544 90.5381 81.0005 90.7508C81.0861 92.4049 81.6556 93.9973 82.6383 95.3305C83.6211 96.6636 84.9737 97.6788 86.5284 98.2499C88.0641 98.9171 89.7662 99.1026 91.4096 98.7821C93.053 98.4615 94.5606 97.6499 95.733 96.4544C97.7213 94.6418 99.684 92.7992 101.655 90.9651C102.941 89.7867 104.183 88.6039 105.538 87.3312C105.79 88.2109 105.994 89.1035 106.15 90.0052C106.347 92.104 106.058 94.22 105.304 96.1887C104.551 98.1574 103.353 99.9259 101.805 101.357C96.8386 106.705 91.7606 111.937 86.7255 117.212C86.3955 117.555 85.9413 117.838 85.7613 118.245C85.5813 118.652 85.4657 119.449 85.6799 119.62L85.7399 119.659C86.1892 119.877 86.6945 119.954 87.1883 119.877C87.3267 119.849 87.45 119.771 87.5354 119.659C87.6554 119.535 87.7711 119.38 87.8868 119.265C91.9663 115.048 96.0672 110.853 100.117 106.606C101.751 104.95 103.288 103.2 104.719 101.365C106.585 99.2995 107.822 96.7438 108.285 93.9988C108.749 91.2538 108.418 88.4336 107.333 85.87C107.216 85.2984 107.33 84.7038 107.65 84.2159C107.929 83.7359 108.237 83.2689 108.554 82.8061C109.569 81.4887 110.414 80.049 111.07 78.5209C112.337 74.7704 114.282 71.2844 116.808 68.2364C117.969 66.7641 118.768 65.0395 119.14 63.2017C119.512 61.3638 119.447 59.4643 118.95 57.6562C118.775 56.9687 118.775 56.2482 118.95 55.5607C121.119 48.8458 123.351 42.1523 125.562 35.4545L128.519 26.4813L129.432 23.7088C131.377 23.7088 133.211 23.6702 135.037 23.7088C136.554 23.7516 137.017 23.0403 137 21.5662C136.91 15.6526 136.944 9.74329 136.944 3.83399ZM60.9371 65.1382C59.9791 66.025 58.7647 66.5856 57.4683 66.7396C56.1719 66.8936 54.86 66.633 53.7208 65.9952C52.587 65.5108 51.631 64.6872 50.9842 63.6375C50.3373 62.5878 50.0314 61.3636 50.1084 60.133C50.2457 58.6217 50.8732 57.1966 51.8953 56.0749C58.5388 49.7402 65.7368 44.0137 73.4028 38.9641C73.8212 38.6683 74.2972 38.4639 74.7998 38.3642C75.1369 38.302 75.4825 38.302 75.8196 38.3642C76.2234 38.4428 76.6086 38.5969 76.9552 38.8184C77.656 39.2534 78.2224 39.8742 78.5916 40.6118C78.9607 41.3493 79.1182 42.1748 79.0464 42.9965C78.9576 45.1359 78.2092 47.1955 76.9038 48.8929C72.237 54.9154 66.878 60.3679 60.9371 65.1382ZM83.2202 73.4043C82.4752 74.1704 81.4966 74.667 80.4385 74.816C79.3803 74.9649 78.3027 74.7577 77.3752 74.2271C76.3988 73.7195 75.5678 72.9716 74.9605 72.0539C74.3533 71.1363 73.9897 70.0791 73.9042 68.982C73.8047 68.0348 73.9263 67.0774 74.2594 66.1851C74.5925 65.2929 75.1281 64.49 75.8239 63.8397C82.3288 57.84 89.3078 52.3758 96.6929 47.5002C96.9157 47.3588 97.1214 47.2174 97.3657 47.0717C98.0107 46.606 98.7923 46.368 99.5875 46.3952C100.383 46.4223 101.146 46.7131 101.758 47.2217C102.35 47.7232 102.769 48.3985 102.955 49.1516C103.141 49.9047 103.085 50.6974 102.795 51.4169C101.861 54.5288 100.136 57.3457 97.7899 59.5931C93.0633 64.3154 88.1482 68.862 83.2288 73.3872L83.2202 73.4043ZM108.55 78.7223C105.818 83.3136 102.397 87.4585 98.407 91.0122C96.8872 92.4778 95.3088 93.879 93.6718 95.216C92.8049 95.9354 91.7625 96.4116 90.6512 96.5959C89.5399 96.7802 88.3996 96.666 87.3469 96.265C86.2942 95.864 85.3669 95.1905 84.6599 94.3135C83.9529 93.4365 83.4915 92.3874 83.323 91.2736C83.2543 90.6543 83.3091 90.0276 83.4842 89.4296C83.6592 88.8316 83.9511 88.2742 84.3429 87.7897C90.1743 81.4573 96.8387 75.9462 104.153 71.4074C104.242 71.3729 104.337 71.3541 104.432 71.3517L104.86 71.7802C103.661 73.0658 102.426 74.2914 101.274 75.6069C100.927 76.1154 100.64 76.6617 100.417 77.2353C101.051 77.4238 101.792 77.9209 102.307 77.7452C104.376 77.051 106.412 76.2454 108.593 75.3884L110.354 74.7027C109.694 76.1597 109.223 77.4881 108.559 78.7051L108.55 78.7223ZM114.434 67.8593C112.835 69.8942 110.832 71.5752 108.55 72.7958C107.844 73.1901 107.12 73.5586 106.377 73.9014C107.14 70.9832 107.903 68.2792 108.55 65.5452L108.576 65.4338C109.211 62.7493 110.418 60.2336 112.115 58.059C113.157 56.692 114.327 57.2362 115.522 57.5319C116.628 57.8019 116.906 58.6118 116.953 59.6745C117.129 62.6108 116.237 65.5117 114.442 67.8421L114.434 67.8593ZM124.461 31.435C121.984 38.9341 119.477 46.4332 117.06 53.9409C116.606 55.3507 115.989 55.6079 114.656 54.7594L121.011 26.507L121.988 22.1704L127.131 23.3745L126.098 26.507L124.461 31.435Z" fill="black"/>
</g>
<defs>
<clipPath id="clip0_1_1891">
<rect width="120" height="120" fill="white" transform="translate(32)"/>
</clipPath>
</defs>
</svg>
