<svg width="220" height="164" viewBox="0 0 220 164" fill="none" xmlns="http://www.w3.org/2000/svg">
<path d="M4.22402 158.096C3.39202 158.096 2.59202 157.963 1.82402 157.696C1.06669 157.419 0.480019 157.067 0.0640194 156.64L0.528019 155.728C0.922686 156.112 1.45069 156.437 2.11202 156.704C2.78402 156.96 3.48802 157.088 4.22402 157.088C4.92802 157.088 5.49869 157.003 5.93602 156.832C6.38402 156.651 6.70935 156.411 6.91202 156.112C7.12535 155.813 7.23202 155.483 7.23202 155.12C7.23202 154.683 7.10402 154.331 6.84802 154.064C6.60269 153.797 6.27735 153.589 5.87202 153.44C5.46669 153.28 5.01869 153.141 4.52802 153.024C4.03735 152.907 3.54669 152.784 3.05602 152.656C2.56535 152.517 2.11202 152.336 1.69602 152.112C1.29069 151.888 0.960019 151.595 0.704019 151.232C0.458686 150.859 0.336019 150.373 0.336019 149.776C0.336019 149.221 0.480019 148.715 0.768019 148.256C1.06669 147.787 1.52002 147.413 2.12802 147.136C2.73602 146.848 3.51469 146.704 4.46402 146.704C5.09335 146.704 5.71735 146.795 6.33602 146.976C6.95469 147.147 7.48802 147.387 7.93602 147.696L7.53602 148.64C7.05602 148.32 6.54402 148.085 6.00002 147.936C5.46669 147.787 4.94935 147.712 4.44802 147.712C3.77602 147.712 3.22135 147.803 2.78402 147.984C2.34669 148.165 2.02135 148.411 1.80802 148.72C1.60535 149.019 1.50402 149.36 1.50402 149.744C1.50402 150.181 1.62669 150.533 1.87202 150.8C2.12802 151.067 2.45869 151.275 2.86402 151.424C3.28002 151.573 3.73335 151.707 4.22402 151.824C4.71469 151.941 5.20002 152.069 5.68002 152.208C6.17069 152.347 6.61869 152.528 7.02402 152.752C7.44002 152.965 7.77069 153.253 8.01602 153.616C8.27202 153.979 8.40002 154.453 8.40002 155.04C8.40002 155.584 8.25069 156.091 7.95202 156.56C7.65335 157.019 7.19469 157.392 6.57602 157.68C5.96802 157.957 5.18402 158.096 4.22402 158.096ZM15.1656 158V147.824H11.2296V146.8H20.2856V147.824H16.3496V158H15.1656ZM26.937 158V153.84L27.209 154.576L22.457 146.8H23.721L27.897 153.632H27.225L31.401 146.8H32.585L27.833 154.576L28.105 153.84V158H26.937ZM36.353 158V146.8H37.537V156.976H43.809V158H36.353ZM48.9969 151.808H54.9169V152.816H48.9969V151.808ZM49.1249 156.976H55.8609V158H47.9409V146.8H55.6209V147.824H49.1249V156.976ZM60.8101 158V146.8H65.3701C66.5648 146.8 67.6101 147.04 68.5061 147.52C69.4128 147.989 70.1168 148.645 70.6181 149.488C71.1195 150.331 71.3701 151.301 71.3701 152.4C71.3701 153.499 71.1195 154.469 70.6181 155.312C70.1168 156.155 69.4128 156.816 68.5061 157.296C67.6101 157.765 66.5648 158 65.3701 158H60.8101ZM61.9941 156.976H65.3061C66.2981 156.976 67.1568 156.784 67.8821 156.4C68.6181 156.005 69.1888 155.467 69.5941 154.784C69.9995 154.091 70.2021 153.296 70.2021 152.4C70.2021 151.493 69.9995 150.699 69.5941 150.016C69.1888 149.333 68.6181 148.8 67.8821 148.416C67.1568 148.021 66.2981 147.824 65.3061 147.824H61.9941V156.976ZM87.4125 158.096C86.5699 158.096 85.7912 157.957 85.0765 157.68C84.3619 157.392 83.7432 156.992 83.2205 156.48C82.6979 155.968 82.2872 155.365 81.9885 154.672C81.7005 153.979 81.5565 153.221 81.5565 152.4C81.5565 151.579 81.7005 150.821 81.9885 150.128C82.2872 149.435 82.6979 148.832 83.2205 148.32C83.7539 147.808 84.3779 147.413 85.0925 147.136C85.8072 146.848 86.5859 146.704 87.4285 146.704C88.2392 146.704 89.0019 146.843 89.7165 147.12C90.4312 147.387 91.0339 147.792 91.5245 148.336L90.7725 149.088C90.3139 148.619 89.8072 148.283 89.2525 148.08C88.6979 147.867 88.1005 147.76 87.4605 147.76C86.7885 147.76 86.1645 147.877 85.5885 148.112C85.0125 148.336 84.5112 148.661 84.0845 149.088C83.6579 149.504 83.3219 149.995 83.0765 150.56C82.8419 151.115 82.7245 151.728 82.7245 152.4C82.7245 153.072 82.8419 153.691 83.0765 154.256C83.3219 154.811 83.6579 155.301 84.0845 155.728C84.5112 156.144 85.0125 156.469 85.5885 156.704C86.1645 156.928 86.7885 157.04 87.4605 157.04C88.1005 157.04 88.6979 156.933 89.2525 156.72C89.8072 156.507 90.3139 156.165 90.7725 155.696L91.5245 156.448C91.0339 156.992 90.4312 157.403 89.7165 157.68C89.0019 157.957 88.2339 158.096 87.4125 158.096ZM100.876 158.096C100.034 158.096 99.2496 157.957 98.5243 157.68C97.8096 157.392 97.1856 156.992 96.6523 156.48C96.1296 155.957 95.7189 155.355 95.4203 154.672C95.1323 153.979 94.9883 153.221 94.9883 152.4C94.9883 151.579 95.1323 150.827 95.4203 150.144C95.7189 149.451 96.1296 148.848 96.6523 148.336C97.1856 147.813 97.8096 147.413 98.5243 147.136C99.2389 146.848 100.023 146.704 100.876 146.704C101.719 146.704 102.498 146.848 103.212 147.136C103.927 147.413 104.546 147.808 105.068 148.32C105.602 148.832 106.012 149.435 106.3 150.128C106.599 150.821 106.748 151.579 106.748 152.4C106.748 153.221 106.599 153.979 106.3 154.672C106.012 155.365 105.602 155.968 105.068 156.48C104.546 156.992 103.927 157.392 103.212 157.68C102.498 157.957 101.719 158.096 100.876 158.096ZM100.876 157.04C101.548 157.04 102.167 156.928 102.732 156.704C103.308 156.469 103.804 156.144 104.22 155.728C104.647 155.301 104.978 154.811 105.212 154.256C105.447 153.691 105.564 153.072 105.564 152.4C105.564 151.728 105.447 151.115 105.212 150.56C104.978 149.995 104.647 149.504 104.22 149.088C103.804 148.661 103.308 148.336 102.732 148.112C102.167 147.877 101.548 147.76 100.876 147.76C100.204 147.76 99.5803 147.877 99.0043 148.112C98.4283 148.336 97.9269 148.661 97.5003 149.088C97.0843 149.504 96.7536 149.995 96.5082 150.56C96.2736 151.115 96.1562 151.728 96.1562 152.4C96.1562 153.061 96.2736 153.675 96.5082 154.24C96.7536 154.805 97.0843 155.301 97.5003 155.728C97.9269 156.144 98.4283 156.469 99.0043 156.704C99.5803 156.928 100.204 157.04 100.876 157.04ZM111.568 158V146.8H112.544L117.664 155.536H117.152L122.224 146.8H123.2V158H122.064V148.576H122.336L117.664 156.576H117.104L112.4 148.576H112.704V158H111.568ZM129.016 158V146.8H133.208C134.157 146.8 134.973 146.955 135.656 147.264C136.338 147.563 136.861 148 137.224 148.576C137.597 149.141 137.784 149.829 137.784 150.64C137.784 151.429 137.597 152.112 137.224 152.688C136.861 153.253 136.338 153.691 135.656 154C134.973 154.309 134.157 154.464 133.208 154.464H129.672L130.2 153.904V158H129.016ZM130.2 154L129.672 153.424H133.176C134.296 153.424 135.144 153.184 135.72 152.704C136.306 152.213 136.6 151.525 136.6 150.64C136.6 149.744 136.306 149.051 135.72 148.56C135.144 148.069 134.296 147.824 133.176 147.824H129.672L130.2 147.264V154ZM147.562 158.096C146.719 158.096 145.935 157.957 145.21 157.68C144.495 157.392 143.871 156.992 143.338 156.48C142.815 155.957 142.405 155.355 142.106 154.672C141.818 153.979 141.674 153.221 141.674 152.4C141.674 151.579 141.818 150.827 142.106 150.144C142.405 149.451 142.815 148.848 143.338 148.336C143.871 147.813 144.495 147.413 145.21 147.136C145.925 146.848 146.709 146.704 147.562 146.704C148.405 146.704 149.183 146.848 149.898 147.136C150.613 147.413 151.231 147.808 151.754 148.32C152.287 148.832 152.698 149.435 152.986 150.128C153.285 150.821 153.434 151.579 153.434 152.4C153.434 153.221 153.285 153.979 152.986 154.672C152.698 155.365 152.287 155.968 151.754 156.48C151.231 156.992 150.613 157.392 149.898 157.68C149.183 157.957 148.405 158.096 147.562 158.096ZM147.562 157.04C148.234 157.04 148.853 156.928 149.418 156.704C149.994 156.469 150.49 156.144 150.906 155.728C151.333 155.301 151.663 154.811 151.898 154.256C152.133 153.691 152.25 153.072 152.25 152.4C152.25 151.728 152.133 151.115 151.898 150.56C151.663 149.995 151.333 149.504 150.906 149.088C150.49 148.661 149.994 148.336 149.418 148.112C148.853 147.877 148.234 147.76 147.562 147.76C146.89 147.76 146.266 147.877 145.69 148.112C145.114 148.336 144.613 148.661 144.186 149.088C143.77 149.504 143.439 149.995 143.194 150.56C142.959 151.115 142.842 151.728 142.842 152.4C142.842 153.061 142.959 153.675 143.194 154.24C143.439 154.805 143.77 155.301 144.186 155.728C144.613 156.144 145.114 156.469 145.69 156.704C146.266 156.928 146.89 157.04 147.562 157.04ZM158.254 158V146.8H159.23L166.958 156.528H166.446V146.8H167.614V158H166.638L158.926 148.272H159.438V158H158.254ZM174.492 151.808H180.412V152.816H174.492V151.808ZM174.62 156.976H181.356V158H173.436V146.8H181.116V147.824H174.62V156.976ZM186.305 158V146.8H187.281L195.009 156.528H194.497V146.8H195.665V158H194.689L186.977 148.272H187.489V158H186.305ZM203.663 158V147.824H199.727V146.8H208.783V147.824H204.847V158H203.663ZM215.756 158.096C214.924 158.096 214.124 157.963 213.356 157.696C212.599 157.419 212.012 157.067 211.596 156.64L212.06 155.728C212.455 156.112 212.983 156.437 213.644 156.704C214.316 156.96 215.02 157.088 215.756 157.088C216.46 157.088 217.031 157.003 217.468 156.832C217.916 156.651 218.242 156.411 218.444 156.112C218.658 155.813 218.764 155.483 218.764 155.12C218.764 154.683 218.636 154.331 218.38 154.064C218.135 153.797 217.81 153.589 217.404 153.44C216.999 153.28 216.551 153.141 216.06 153.024C215.57 152.907 215.079 152.784 214.588 152.656C214.098 152.517 213.644 152.336 213.228 152.112C212.823 151.888 212.492 151.595 212.236 151.232C211.991 150.859 211.868 150.373 211.868 149.776C211.868 149.221 212.012 148.715 212.3 148.256C212.599 147.787 213.052 147.413 213.66 147.136C214.268 146.848 215.047 146.704 215.996 146.704C216.626 146.704 217.25 146.795 217.868 146.976C218.487 147.147 219.02 147.387 219.468 147.696L219.068 148.64C218.588 148.32 218.076 148.085 217.532 147.936C216.999 147.787 216.482 147.712 215.98 147.712C215.308 147.712 214.754 147.803 214.316 147.984C213.879 148.165 213.554 148.411 213.34 148.72C213.138 149.019 213.036 149.36 213.036 149.744C213.036 150.181 213.159 150.533 213.404 150.8C213.66 151.067 213.991 151.275 214.396 151.424C214.812 151.573 215.266 151.707 215.756 151.824C216.247 151.941 216.732 152.069 217.212 152.208C217.703 152.347 218.151 152.528 218.556 152.752C218.972 152.965 219.303 153.253 219.548 153.616C219.804 153.979 219.932 154.453 219.932 155.04C219.932 155.584 219.783 156.091 219.484 156.56C219.186 157.019 218.727 157.392 218.108 157.68C217.5 157.957 216.716 158.096 215.756 158.096Z" fill="#BDEBEA"/>
<g clip-path="url(#clip0_1_1891)">
<path d="M119.767 118.279C119.947 117.872 120.402 117.589 120.731 117.246C125.767 111.967 130.845 106.735 135.811 101.391C137.365 99.9558 138.566 98.1803 139.32 96.2036C140.074 94.2269 140.36 92.1026 140.156 89.9968C140 89.0951 139.796 88.2025 139.544 87.3229C138.189 88.6084 136.93 89.7783 135.661 90.9567C133.69 92.7908 131.727 94.6334 129.739 96.4461C128.567 97.6415 127.059 98.4531 125.416 98.7737C123.772 99.0943 122.07 98.9087 120.534 98.2416C118.98 97.6705 117.627 96.6553 116.644 95.3221C115.662 93.9889 115.092 92.3965 115.006 90.7425C114.96 90.5297 114.899 90.3206 114.822 90.1168C113.309 91.4024 111.861 92.5851 110.426 93.8021L80.5877 119.085C80.382 119.261 80.1591 119.479 79.9663 119.65H119.746L119.686 119.612C119.472 119.462 119.583 118.673 119.767 118.279V118.279Z" fill="#FFCEBF"/>
<path d="M78.1436 118.279C78.4974 117.818 78.9245 117.418 79.4077 117.096L120.7 82.0642C123.517 79.6731 126.321 77.2691 129.112 74.8522C129.457 74.6118 129.727 74.2791 129.892 73.8924C130.559 70.9831 130.654 67.9717 130.17 65.0263C129.742 65.3262 129.51 65.4548 129.313 65.6648C125.932 68.6901 122.568 71.7412 119.17 74.7494C118.044 75.8824 116.588 76.6292 115.012 76.8825C113.435 77.1359 111.818 76.8826 110.394 76.1592C108.941 75.4734 107.726 74.3709 106.901 72.992C106.077 71.6131 105.682 70.0201 105.766 68.4159V67.0275C105.145 67.4817 104.69 67.7859 104.266 68.1287C87.7396 81.3615 71.2159 94.5842 54.695 107.797C53.9493 108.393 53.058 109.721 52.081 108.431C51.104 107.141 52.5909 106.61 53.3408 106.01C70.953 91.8774 88.5738 77.7576 106.203 63.6507C109.074 61.3496 109.263 60.3854 107.394 56.7301L106.28 57.7757C103.225 60.6168 100.135 63.4193 97.1271 66.3075C95.8931 67.4978 94.3476 68.3148 92.6691 68.6641C90.9906 69.0135 89.2476 68.8809 87.6412 68.2818C86.0348 67.6827 84.6306 66.6415 83.5908 65.2784C82.5509 63.9153 81.9178 62.2858 81.7646 60.5782C81.1947 61.0067 80.7019 61.3196 80.2348 61.6838L54.095 81.9443C53.6442 82.3864 53.13 82.759 52.5695 83.0498C52.1464 83.1777 51.6921 83.155 51.2839 82.9856V119.671H78.0922C77.9925 119.451 77.9453 119.21 77.9542 118.969C77.9631 118.727 78.028 118.491 78.1436 118.279V118.279Z" fill="#FFCEBF"/>
<path d="M150.565 1.82096C149.837 4.20782 149.13 6.59897 148.491 9.01154C147.901 10.7164 147.97 12.5802 148.684 14.2371C149.397 15.8941 150.704 17.2246 152.348 17.9676C157.376 20.6107 163.042 21.798 168.709 21.3958V2.22806C168.646 1.80781 168.669 1.37914 168.777 0.968207C168.897 0.73576 169.049 0.520916 169.227 0.329712H150.548C150.835 0.663958 150.737 1.25103 150.565 1.82096V1.82096Z" fill="#FF6196"/>
<path d="M113.051 42.9976C112.962 45.137 112.214 47.1966 110.908 48.894C106.242 54.9179 100.883 60.3719 94.9417 65.1435C93.9836 66.0304 92.7693 66.591 91.4728 66.745C90.1764 66.8989 88.8646 66.6383 87.7254 66.0006C86.5916 65.5161 85.6356 64.6925 84.9887 63.6428C84.3419 62.5932 84.036 61.369 84.113 60.1384C84.2502 58.627 84.8777 57.202 85.8999 56.0803C92.5434 49.7455 99.7414 44.019 107.407 38.9695C107.909 38.5758 108.523 38.3499 109.16 38.3237C109.798 38.2976 110.427 38.4725 110.96 38.8238C111.66 39.2585 112.226 39.8786 112.595 40.6153C112.964 41.352 113.122 42.1766 113.051 42.9976V42.9976Z" fill="#FF87AF"/>
<path d="M107.913 68.97C107.813 68.0228 107.935 67.0654 108.268 66.1731C108.601 65.2809 109.136 64.478 109.832 63.8277C116.337 57.8281 123.316 52.3638 130.701 47.4883C130.924 47.3468 131.13 47.2054 131.374 47.0597C132.019 46.594 132.801 46.356 133.596 46.3832C134.391 46.4103 135.155 46.7011 135.766 47.2097C136.358 47.7112 136.777 48.3865 136.963 49.1396C137.15 49.8928 137.094 50.6854 136.803 51.4049C135.869 54.5168 134.145 57.3337 131.798 59.5811C127.033 64.2758 122.175 68.8762 117.229 73.3795C116.484 74.1456 115.505 74.6422 114.447 74.7911C113.389 74.9401 112.311 74.7329 111.384 74.2022C110.409 73.6958 109.579 72.9499 108.972 72.0347C108.365 71.1194 108 70.0648 107.913 68.97Z" fill="#FF87AF"/>
<path d="M138.834 71.8015C137.635 73.0871 136.4 74.3126 135.248 75.6282C134.901 76.1367 134.614 76.683 134.391 77.2566C135.025 77.4451 135.766 77.9422 136.28 77.7665C138.899 76.888 141.453 75.8339 144.328 74.724C143.702 76.1638 143.231 77.4922 142.567 78.7092C139.831 83.3078 136.404 87.4587 132.407 91.0164C130.887 92.4819 129.308 93.8832 127.671 95.2201C126.805 95.9395 125.762 96.4157 124.651 96.6001C123.54 96.7844 122.399 96.6702 121.347 96.2692C120.294 95.8681 119.367 95.1947 118.66 94.3177C117.953 93.4406 117.491 92.3916 117.323 91.2778C117.254 90.6585 117.309 90.0317 117.484 89.4337C117.659 88.8357 117.951 88.2784 118.343 87.7939C124.174 81.4614 130.838 75.9503 138.153 71.4115C138.242 71.3771 138.336 71.3582 138.432 71.3558L138.834 71.8015Z" fill="#FF87AF"/>
<path d="M148.672 54.7335L156.004 22.1659L161.147 23.37L158.494 31.4305C156.017 38.9296 153.51 46.4287 151.093 53.9364C150.622 55.3248 150.005 55.5819 148.672 54.7335V54.7335Z" fill="#FF6196"/>
<path d="M140.386 73.8885C141.161 70.9274 141.933 68.1892 142.584 65.421C143.219 62.7364 144.426 60.2207 146.124 58.0461C147.165 56.6791 148.335 57.2234 149.53 57.519C150.636 57.789 150.914 58.5989 150.962 59.6616C151.136 62.6005 150.241 65.5031 148.442 67.8335C146.3 70.4887 143.532 72.5695 140.386 73.8885V73.8885Z" fill="#FF6196"/>
<path d="M170.944 3.83936C171.008 2.88498 170.983 1.92674 170.871 0.976845C170.783 0.711516 170.607 0.483621 170.374 0.329779C170.184 0.175101 169.961 0.0652523 169.723 0.00838844C169.585 -0.0173228 169.393 0.124089 169.208 0.325493C169.03 0.516698 168.878 0.731542 168.758 0.96399C168.65 1.37492 168.627 1.80359 168.69 2.22384V21.3873C163.023 21.7895 157.357 20.6022 152.329 17.9591C150.685 17.2161 149.378 15.8856 148.665 14.2286C147.951 12.5717 147.882 10.7079 148.472 9.00304C149.111 6.59046 149.818 4.19932 150.546 1.81246C150.718 1.24253 150.816 0.655454 150.546 0.321208C150.396 0.158494 150.189 0.0602123 149.968 0.0469556C149.685 0.0500088 149.411 0.146413 149.188 0.321208C148.867 0.512888 148.612 0.796593 148.455 1.1354C147.598 3.70652 146.844 6.30336 146.188 8.9259C145.941 9.95936 145.874 11.0279 145.991 12.0841C146.157 13.9952 146.868 15.8186 148.039 17.3377C149.21 18.8569 150.793 20.0081 152.599 20.6545C153.409 20.993 153.884 21.3273 153.657 22.3943C153.344 23.7484 153.04 25.1026 152.732 26.461C150.632 35.6656 148.544 44.8745 146.467 54.0877C146.408 54.4985 146.228 54.8822 145.948 55.189C144.579 56.2771 143.429 57.6148 142.559 59.1314C141.449 61.1327 140.682 63.3052 140.287 65.5592C140.212 66.2782 139.952 66.9655 139.533 67.5548C139.114 68.144 138.551 68.6153 137.896 68.9231C136.109 69.8273 134.468 70.9971 132.484 72.2141C132.616 69.8282 132.591 67.4361 132.407 65.0535C132.256 64.3206 132.288 63.5618 132.5 62.8442C132.713 62.1267 133.099 61.4725 133.624 60.9397C136.238 58.3506 138.1 55.1015 139.015 51.538C139.288 50.712 139.363 49.8333 139.233 48.9729C139.104 48.1126 138.774 47.2948 138.27 46.5856C137.766 45.8764 137.102 45.2957 136.332 44.8905C135.563 44.4853 134.708 44.267 133.838 44.2531C132.43 44.2374 131.047 44.6304 129.857 45.3844C125.768 48.1767 121.75 51.0715 117.807 54.0663C115.463 55.8318 113.256 57.7858 110.985 59.637C110.887 59.5319 110.802 59.4154 110.732 59.2899C110.689 58.9744 110.604 58.6661 110.48 58.3729C108.581 55.4418 109.897 53.3121 111.958 51.1223C114.105 48.8714 115.292 45.8727 115.266 42.7619C115.333 41.1769 114.836 39.6194 113.865 38.3653C113.347 37.7286 112.71 37.2001 111.988 36.8097C110.963 36.2487 109.791 36.0145 108.629 36.1386C107.467 36.2627 106.371 36.7391 105.487 37.5039L104.292 38.361C101.562 40.315 98.7981 42.2177 96.1713 44.3089C92.3364 47.3705 88.5841 50.5341 84.9183 53.7963C83.2042 55.309 81.953 57.3744 80.1746 58.78C70.9014 66.1034 61.5297 73.294 52.1922 80.5317C51.8711 80.7232 51.5759 80.9551 51.3137 81.2216C51.2867 81.2606 51.2638 81.3023 51.2452 81.3459C51.0481 81.8044 50.8809 82.5629 51.1123 82.8414C51.1691 82.9019 51.2376 82.95 51.3137 82.9828C51.7219 83.1523 52.1762 83.175 52.5993 83.0471C53.1598 82.7563 53.674 82.3837 54.1248 81.9415L80.2646 61.6811C80.7317 61.3168 81.2245 60.9869 81.7944 60.5755C81.9476 62.2831 82.5807 63.9125 83.6206 65.2757C84.6604 66.6388 86.0646 67.68 87.671 68.2791C89.2774 68.8782 91.0204 69.0107 92.6989 68.6614C94.3774 68.312 95.9229 67.4951 97.1569 66.3048C100.157 63.4166 103.255 60.6141 106.31 57.773L107.424 56.7274C109.293 60.3827 109.104 61.3468 106.233 63.648C88.5893 77.7663 70.9585 91.8875 53.3406 106.012C52.5907 106.611 51.108 107.156 52.0808 108.433C53.0535 109.71 53.9491 108.394 54.6948 107.798C71.2242 94.5972 87.7423 81.3787 104.249 68.1432C104.677 67.8003 105.127 67.4961 105.749 67.0419V68.4303C105.665 70.0345 106.06 71.6275 106.884 73.0064C107.708 74.3853 108.924 75.4879 110.377 76.1736C111.801 76.897 113.417 77.1503 114.994 76.897C116.571 76.6436 118.027 75.8968 119.153 74.7638C122.551 71.7642 125.915 68.7045 129.296 65.6792C129.51 65.4863 129.759 65.3406 130.153 65.0407C130.637 67.9861 130.542 70.9975 129.874 73.9068C129.71 74.2936 129.439 74.6262 129.095 74.8667C126.301 77.2807 123.497 79.6847 120.683 82.0787L79.4075 117.115C78.9243 117.437 78.4972 117.836 78.1434 118.297C78.0305 118.507 77.9672 118.741 77.9582 118.979C77.9493 119.217 77.9951 119.455 78.092 119.673C78.2856 119.818 78.5094 119.917 78.7468 119.964C78.9842 120.011 79.2291 120.004 79.4633 119.943C79.648 119.889 79.8181 119.794 79.9603 119.664C80.1746 119.493 80.3889 119.274 80.5817 119.099L110.42 93.8158C111.855 92.5988 113.304 91.399 114.816 90.1306C114.893 90.3343 114.954 90.5434 115 90.7562C115.086 92.4102 115.656 94.0027 116.638 95.3358C117.621 96.669 118.974 97.6842 120.528 98.2553C122.064 98.9225 123.766 99.108 125.41 98.7874C127.053 98.4669 128.561 97.6552 129.733 96.4598C131.721 94.6472 133.684 92.8045 135.655 90.9705C136.941 89.792 138.183 88.6093 139.538 87.3366C139.79 88.2162 139.994 89.1089 140.15 90.0106C140.347 92.1094 140.058 94.2253 139.304 96.1941C138.551 98.1628 137.353 99.9313 135.805 101.362C130.839 106.71 125.761 111.942 120.725 117.217C120.396 117.56 119.941 117.843 119.761 118.25C119.581 118.657 119.466 119.454 119.68 119.626L119.74 119.664C120.189 119.883 120.695 119.959 121.188 119.883C121.327 119.854 121.45 119.777 121.535 119.664C121.655 119.54 121.771 119.386 121.887 119.27C125.966 115.053 130.067 110.858 134.117 106.611C135.751 104.955 137.288 103.205 138.719 101.371C140.585 99.3049 141.822 96.7492 142.285 94.0042C142.749 91.2591 142.418 88.439 141.333 85.8754C141.216 85.3037 141.33 84.7092 141.65 84.2213C141.929 83.7413 142.237 83.2742 142.554 82.8114C143.569 81.494 144.414 80.0543 145.07 78.5262C146.337 74.7758 148.282 71.2898 150.808 68.2417C151.969 66.7695 152.768 65.0448 153.14 63.207C153.512 61.3692 153.447 59.4696 152.95 57.6616C152.775 56.9741 152.775 56.2535 152.95 55.5661C155.119 48.8512 157.351 42.1577 159.562 35.4599L162.519 26.4867L163.432 23.7142C165.377 23.7142 167.211 23.6756 169.037 23.7142C170.554 23.757 171.017 23.0457 171 21.5715C170.91 15.658 170.944 9.74866 170.944 3.83936V3.83936ZM94.9371 65.1435C93.9791 66.0304 92.7647 66.591 91.4683 66.745C90.1719 66.8989 88.86 66.6383 87.7208 66.0006C86.587 65.5162 85.631 64.6925 84.9842 63.6429C84.3373 62.5932 84.0314 61.369 84.1084 60.1384C84.2457 58.6271 84.8732 57.202 85.8953 56.0803C92.5388 49.7455 99.7368 44.019 107.403 38.9695C107.821 38.6737 108.297 38.4693 108.8 38.3696C109.137 38.3074 109.483 38.3074 109.82 38.3696C110.223 38.4482 110.609 38.6023 110.955 38.8238C111.656 39.2588 112.222 39.8796 112.592 40.6172C112.961 41.3547 113.118 42.1802 113.046 43.0019C112.958 45.1413 112.209 47.2009 110.904 48.8983C106.237 54.9207 100.878 60.3733 94.9371 65.1435V65.1435ZM117.22 73.4097C116.475 74.1758 115.497 74.6724 114.438 74.8213C113.38 74.9703 112.303 74.7631 111.375 74.2324C110.399 73.7249 109.568 72.977 108.961 72.0593C108.353 71.1417 107.99 70.0844 107.904 68.9874C107.805 68.0401 107.926 67.0828 108.259 66.1905C108.593 65.2982 109.128 64.4954 109.824 63.8451C116.329 57.8454 123.308 52.3811 130.693 47.5056C130.916 47.3642 131.121 47.2228 131.366 47.0771C132.011 46.6114 132.792 46.3734 133.587 46.4005C134.383 46.4277 135.146 46.7185 135.758 47.2271C136.35 47.7285 136.769 48.4038 136.955 49.157C137.141 49.9101 137.085 50.7028 136.795 51.4223C135.861 54.5342 134.136 57.351 131.79 59.5985C127.063 64.3208 122.148 68.8674 117.229 73.3925L117.22 73.4097ZM142.55 78.7276C139.818 83.319 136.397 87.4638 132.407 91.0176C130.887 92.4831 129.309 93.8844 127.672 95.2214C126.805 95.9408 125.763 96.417 124.651 96.6013C123.54 96.7856 122.4 96.6714 121.347 96.2704C120.294 95.8694 119.367 95.1959 118.66 94.3189C117.953 93.4419 117.492 92.3928 117.323 91.279C117.254 90.6597 117.309 90.0329 117.484 89.4349C117.659 88.837 117.951 88.2796 118.343 87.7951C124.174 81.4627 130.839 75.9515 138.153 71.4128C138.242 71.3783 138.337 71.3594 138.432 71.3571L138.86 71.7856C137.661 73.0712 136.426 74.2967 135.274 75.6123C134.927 76.1208 134.64 76.6671 134.417 77.2407C135.051 77.4292 135.792 77.9263 136.307 77.7506C138.376 77.0564 140.412 76.2508 142.593 75.3937L144.354 74.7081C143.694 76.1651 143.223 77.4935 142.559 78.7105L142.55 78.7276ZM148.434 67.8646C146.835 69.8996 144.832 71.5806 142.55 72.8012C141.844 73.1954 141.12 73.564 140.377 73.9068C141.14 70.9885 141.903 68.2846 142.55 65.5506L142.576 65.4392C143.211 62.7546 144.418 60.2389 146.115 58.0644C147.157 56.6974 148.327 57.2416 149.522 57.5373C150.628 57.8073 150.906 58.6172 150.953 59.6799C151.129 62.6162 150.237 65.5171 148.442 67.8475L148.434 67.8646ZM158.461 31.4404C155.984 38.9395 153.477 46.4386 151.06 53.9463C150.606 55.3561 149.989 55.6132 148.656 54.7648L155.011 26.5124L155.988 22.1758L161.131 23.3799L160.098 26.5124L158.461 31.4404Z" fill="black"/>
</g>
<defs>
<clipPath id="clip0_1_1891">
<rect width="120" height="120" fill="white" transform="translate(51)"/>
</clipPath>
</defs>
</svg>
