<svg width="120" height="164" viewBox="0 0 120 164" fill="none" xmlns="http://www.w3.org/2000/svg">
<path d="M0 60V120H60H120V60V0H60H0V60Z" fill="#007ACC"/>
<path d="M26.5373 60.3979L26.4992 65.3122H34.3087H42.1182L42.1182 87.5026V109.693H47.6421H53.1659V87.5026L53.1659 65.3122H60.9754H68.7849V60.4931C68.7849 57.8264 68.7278 55.5979 68.6516 55.5407C68.5944 55.4645 59.0897 55.4264 47.5659 55.4455L26.5944 55.5026L26.5373 60.3979Z" fill="white"/>
<path d="M96.8265 55.3636C99.8741 56.1255 102.198 57.4779 104.331 59.6874C105.436 60.8684 107.074 63.0208 107.207 63.535C107.246 63.6874 102.026 67.1922 98.8646 69.1541C98.7503 69.2303 98.2931 68.7351 97.7789 67.9731C96.236 65.7255 94.6169 64.7541 92.1408 64.5827C88.5027 64.3351 86.1598 66.2398 86.1789 69.4208C86.1789 70.3541 86.3122 70.9065 86.6931 71.6684C87.4931 73.3255 88.9789 74.316 93.6455 76.3351C102.236 80.0303 105.912 82.4684 108.198 85.935C110.75 89.8017 111.322 95.9731 109.588 100.564C107.684 105.554 102.96 108.945 96.3122 110.068C94.255 110.43 89.3789 110.373 87.1693 109.973C82.3503 109.116 77.7789 106.735 74.9598 103.611C73.855 102.392 71.7027 99.2112 71.836 98.9827C71.8931 98.9065 72.3884 98.6017 72.9408 98.2779C73.4741 97.9731 75.4931 96.8112 77.3979 95.7065L80.8455 93.7065L81.5693 94.7731C82.5789 96.316 84.7884 98.4303 86.1217 99.135C89.9503 101.154 95.2074 100.868 97.7979 98.5446C98.9027 97.535 99.3598 96.4874 99.3598 94.9446C99.3598 93.5541 99.1884 92.9446 98.4646 91.897C97.5312 90.5636 95.6265 89.4398 90.2169 87.097C84.0265 84.4303 81.3598 82.7731 78.9217 80.1446C77.5122 78.6208 76.1789 76.1827 75.6265 74.1446C75.1693 72.4493 75.055 68.2017 75.4169 66.4874C76.6931 60.5065 81.2074 56.3351 87.7217 55.097C89.836 54.697 94.7503 54.8493 96.8265 55.3636Z" fill="white"/>
<path d="M5.28391 147.824H1.34791V146.8H10.4039V147.824H6.46791V158H5.28391V147.824ZM18.2234 154.128V158H17.0554V154.128L12.5754 146.8H13.8394L17.6794 153.088L21.5194 146.8H22.7034L18.2234 154.128ZM30.6633 146.8C32.0926 146.8 33.2126 147.141 34.0233 147.824C34.834 148.507 35.2393 149.445 35.2393 150.64C35.2393 151.835 34.834 152.773 34.0233 153.456C33.2126 154.128 32.0926 154.464 30.6633 154.464H27.6553V158H26.4713V146.8H30.6633ZM30.6313 153.424C31.7406 153.424 32.5886 153.184 33.1753 152.704C33.762 152.213 34.0553 151.525 34.0553 150.64C34.0553 149.733 33.762 149.04 33.1753 148.56C32.5886 148.069 31.7406 147.824 30.6313 147.824H27.6553V153.424H30.6313ZM47.8855 156.976V158H39.9655V146.8H47.6455V147.824H41.1495V151.808H46.9415V152.816H41.1495V156.976H47.8855ZM55.9227 158.096C55.0907 158.096 54.2907 157.963 53.5227 157.696C52.7654 157.429 52.1787 157.077 51.7627 156.64L52.2267 155.728C52.632 156.133 53.1707 156.464 53.8427 156.72C54.5147 156.965 55.208 157.088 55.9227 157.088C56.9254 157.088 57.6774 156.907 58.1787 156.544C58.68 156.171 58.9307 155.691 58.9307 155.104C58.9307 154.656 58.792 154.299 58.5147 154.032C58.248 153.765 57.9174 153.563 57.5227 153.424C57.128 153.275 56.5787 153.115 55.8747 152.944C55.032 152.731 54.36 152.528 53.8587 152.336C53.3574 152.133 52.9254 151.829 52.5627 151.424C52.2107 151.019 52.0347 150.469 52.0347 149.776C52.0347 149.211 52.184 148.699 52.4827 148.24C52.7814 147.771 53.24 147.397 53.8587 147.12C54.4774 146.843 55.2454 146.704 56.1627 146.704C56.8027 146.704 57.4267 146.795 58.0347 146.976C58.6534 147.147 59.1867 147.387 59.6347 147.696L59.2347 148.64C58.7654 148.331 58.264 148.101 57.7307 147.952C57.1974 147.792 56.6747 147.712 56.1627 147.712C55.1814 147.712 54.44 147.904 53.9387 148.288C53.448 148.661 53.2027 149.147 53.2027 149.744C53.2027 150.192 53.336 150.555 53.6027 150.832C53.88 151.099 54.2214 151.307 54.6267 151.456C55.0427 151.595 55.5974 151.749 56.2907 151.92C57.112 152.123 57.7734 152.325 58.2747 152.528C58.7867 152.72 59.2187 153.019 59.5707 153.424C59.9227 153.819 60.0987 154.357 60.0987 155.04C60.0987 155.605 59.944 156.123 59.6347 156.592C59.336 157.051 58.872 157.419 58.2427 157.696C57.6134 157.963 56.84 158.096 55.9227 158.096ZM69.7085 158.096C68.5992 158.096 67.5965 157.851 66.7005 157.36C65.8152 156.869 65.1165 156.192 64.6045 155.328C64.1032 154.453 63.8525 153.477 63.8525 152.4C63.8525 151.323 64.1032 150.352 64.6045 149.488C65.1165 148.613 65.8205 147.931 66.7165 147.44C67.6125 146.949 68.6152 146.704 69.7245 146.704C70.5565 146.704 71.3245 146.843 72.0285 147.12C72.7325 147.397 73.3299 147.803 73.8205 148.336L73.0685 149.088C72.1939 148.203 71.0899 147.76 69.7565 147.76C68.8712 147.76 68.0659 147.963 67.3405 148.368C66.6152 148.773 66.0445 149.328 65.6285 150.032C65.2232 150.736 65.0205 151.525 65.0205 152.4C65.0205 153.275 65.2232 154.064 65.6285 154.768C66.0445 155.472 66.6152 156.027 67.3405 156.432C68.0659 156.837 68.8712 157.04 69.7565 157.04C71.1005 157.04 72.2045 156.592 73.0685 155.696L73.8205 156.448C73.3299 156.981 72.7272 157.392 72.0125 157.68C71.3085 157.957 70.5405 158.096 69.7085 158.096ZM86.1586 158L83.5986 154.4C83.3106 154.432 83.0119 154.448 82.7026 154.448H79.6946V158H78.5106V146.8H82.7026C84.1319 146.8 85.2519 147.141 86.0626 147.824C86.8733 148.507 87.2786 149.445 87.2786 150.64C87.2786 151.515 87.0546 152.256 86.6066 152.864C86.1693 153.461 85.5399 153.893 84.7186 154.16L87.4546 158H86.1586ZM82.6706 153.44C83.7799 153.44 84.6279 153.195 85.2146 152.704C85.8013 152.213 86.0946 151.525 86.0946 150.64C86.0946 149.733 85.8013 149.04 85.2146 148.56C84.6279 148.069 83.7799 147.824 82.6706 147.824H79.6946V153.44H82.6706ZM92.2392 146.8H93.4232V158H92.2392V146.8ZM103.425 146.8C104.855 146.8 105.975 147.141 106.785 147.824C107.596 148.507 108.001 149.445 108.001 150.64C108.001 151.835 107.596 152.773 106.785 153.456C105.975 154.128 104.855 154.464 103.425 154.464H100.417V158H99.2334V146.8H103.425ZM103.393 153.424C104.503 153.424 105.351 153.184 105.937 152.704C106.524 152.213 106.817 151.525 106.817 150.64C106.817 149.733 106.524 149.04 105.937 148.56C105.351 148.069 104.503 147.824 103.393 147.824H100.417V153.424H103.393ZM114.529 147.824H110.593V146.8H119.649V147.824H115.713V158H114.529V147.824Z" fill="#BDEBEA"/>
</svg>
